<svg version="1.2" baseProfile="tiny-ps" xmlns="http://www.w3.org/2000/svg" viewBox="0 0 902 226" width="902" height="226">
	<title>New Project</title>
	<style>
		tspan { white-space:pre }
	</style>
	<path id="N3URAVERSE" fill="#c00202" aria-label="N3URAVERSE"  d="m47.6 160.5q-3 0-5.4-0.9v-4.5q0-22.95 1.5-66.6l0.6-14.55q-1.95-2.55-3.9-7.95q-1.8-5.55-1.8-6.75q0-1.35 0.3-1.65q0.3-0.3 7.5-0.75q7.35-0.6 15-0.6q7.8 0 8.7 0.75q26.55 59.4 27 60.6q0.6 1.2 0.9 1.2l0.6-1.05v-4.2q0-12.75-0.9-31.8q-0.75-19.05-1.65-23.7q2.1-1.95 7.65-3.3q5.7-1.5 10.2-1.5q4.65 0 4.65 0.75q0 3-1.05 7.05q-1.05 4.05-1.05 4.2q-1.05 6.75-1.05 21.15q0 14.25 0 20.55q0.15 6.3 0.15 12.15q0.15 5.7 0.3 11.4q0.15 5.55 0.15 10.2q0.3 9.9 0.3 13.8l0.15 2.1q0 0.45-1.95 1.2q-5.85 2.4-15.75 2.4l-5.55-0.6q-6-16.95-17.55-42.75q-11.55-25.8-12.9-27.75q-1.35-2.1-1.65-2.1l-0.45 1.05q-0.6 4.2-0.6 18.15q0 13.8 0.6 30.15q0.75 16.35 1.65 20.55q-4.05 3.6-14.7 3.6zm520.95-63.15l0.15-16.2q0-6.45-0.3-7.05q-1.65-1.65-4.35-7.95q-2.55-6.3-2.55-8.1q1.65-1.65 52.65-1.65q12.6 0 12.6 0.6q0 3.15-1.5 6.9q-1.35 3.75-3 6q-1.5 2.25-2.25 2.1q-0.6-0.3-6.15-0.3q-5.4 0-15.15 0.75q-9.75 0.6-10.65 1.5q-0.9 0.9-0.9 16.5l0.15 6.3q6-0.15 17.7-0.15q11.7 0 11.7 0.45q0 5.4-3.6 12.3q-1.35 2.4-1.65 2.25q-3.9 0-13.35 0.75q-9.45 0.6-10.95 1.5q-0.15 0.15-0.15 12.6q0 12.45 0.75 13.2q2.4 2.4 25.8 2.4q9.45 0 12.75-0.45q3.3-0.6 3.3-0.45q0 3.6-2.4 8.55q-2.4 4.95-5.1 7.5q-1.5 1.5-27 1.5q-25.35 0-26.25-1.2q-0.9-0.75-0.9-14.4q0-13.8 0.3-29.1q-2.7-2.4-5.25-7.5q-2.4-5.1-2.4-8.7q0-0.15 7.95-0.45z" />
	<path id="N3URAVERSE" fill="#7f7f7f" aria-label="N3URAVERSE"  d="m150.05 92.55q1.8 0.3 5.25 0.3q3.6 0 7.65-1.35q4.2-1.5 6-3.6q3.3-3.6 3.3-6.9q0-5.1-5.25-7.65q-5.1-2.55-10.95-2.55q-10.05 0-17.1 2.1l-2.1 0.75q-1.05 0-1.05-3.6q0-3.6 0.75-7.95q0.75-4.35 1.65-5.25q7.05-2.1 16.2-2.1q9.3 0 15.45 1.05q6.3 1.05 12 3.6q5.7 2.4 9 7.2q3.3 4.8 3.3 11.85q0 7.05-4.95 12.15q-4.8 5.1-10.05 6.9q-0.75 0.3 0 0.6q0.9 0.3 2.4 0.9q1.5 0.45 5.4 2.55q3.9 2.1 6.75 4.95q3 2.7 5.4 7.8q2.4 4.95 2.4 12.3q0 7.35-4.35 13.95q-4.2 6.6-11.25 10.35q-14.1 7.5-32.25 7.5q-13.05 0-20.25-2.25l-2.4-0.75q-0.6-0.75-1.35-8.55q-0.6-7.8-0.6-13.05q0-5.4 0.15-6.9q0.15-0.75 3.6-1.8q3.6-1.2 6.45-1.2q2.85 0 2.85 0.3q0 7.95 3.9 13.05q3.9 4.95 13.65 4.95q9.75 0 15.3-4.95q5.7-5.1 5.7-11.25q0-6.3-3.6-9.9q-3.6-3.6-9.6-5.1q-9.75-2.7-21.3-2.7q-0.6 0-0.6-0.3q0-6.75 3.15-13.2q1.05-2.25 1.35-2.25zm83.85-30.15l-1.2 41.25q0 39 16.5 39q4.95 0 8.4-1.95q3.45-2.1 6.3-7.5q5.85-10.5 5.85-40.5q0-30.15-1.65-40.2q1.65-0.75 4.2-0.75q11.25 0 15 3.9q1.35 6.75 1.35 42.75q0 36.75-12.15 50.4q-6 6.75-13.05 9.45q-6.9 2.7-16.05 2.7q-17.85 0-25.95-13.5q-8.1-13.65-8.1-46.95q0-12.6 0.3-19.65q0.45-7.05 0.3-7.2q-0.9-1.65-2.25-5.7q-1.2-4.05-1.2-5.85q0-0.6 2.85-1.8q7.35-2.85 13.65-2.85q6.3 0 6.6 0.3q0.3 0.3 0.3 4.65zm90.45 42.75q17.7-1.65 25.95-8.25q8.4-6.75 8.4-13.2q0-6.6-6.45-9.6q-6.45-3.15-16.35-3.15q-5.25 0-10.65 0.9q-0.9 6.45-0.9 33.3zm1.65 51.75q-1.65 1.65-6.6 2.7q-4.95 0.9-8.25 0.9q-3.3 0-5.7-0.9l0.9-86.55q-1.95-2.4-3.9-7.95q-1.8-5.55-1.8-6.75q0-1.35 0.3-1.65q0.3-0.45 9.45-0.9q9.3-0.6 18.75-0.6q9.45 0 16.8 1.05q7.35 1.05 15.3 3.75q7.95 2.55 12.6 8.25q4.65 5.7 4.65 14.7q0 8.85-6.3 16.5q-6.3 7.65-17.1 12.9q0 2.4 9.45 21.6q9.45 19.05 15 24.6q0.15 0.15 0.15 0.6q0 0.3-2.4 1.35q-6.6 3.15-14.25 3.15l-3.75-0.3q-3.3-3.3-11.55-21.9q-8.1-18.6-9-22.8q-1.8 1.05-14.25 3.15q0.3 30.15 1.5 35.1zm114.45-34.5q-2.1-0.15-12.9-0.15q-10.8 0-12.6 0.6q-7.95 26.1-9 37.65q0 0.15-3.75 0.15q-3.6 0-7.5-0.45q-8.25-1.2-8.25-2.1q0-6 10.65-34.95q-1.95-1.65-4.5-6.75q-2.55-5.25-2.55-8.7q0-0.15 12.45-0.6q12.3-35.7 13.95-37.65q0.6-0.45 5.4-1.35q4.8-1.05 6.15-1.05l-0.3-1.95q-0.3-2.1-0.75-4.5q-0.3-2.55-0.3-3.3q0-0.45 2.55-1.8q7.35-3.6 15.15-3.6q1.5 8.85 3.9 22.65q2.55 13.65 9.75 41.85q7.2 28.2 13.8 39.3l1.05 1.8q0 0.75-2.85 2.55q-2.85 1.8-7.5 3.45q-4.65 1.65-8.55 1.65q-1.35 0-6.6-16.95q-5.1-17.1-6.9-25.8zm-3.6-15.45q-5.1-21.6-5.55-24.15q-0.45-2.55-0.75-2.55q-0.3 0-0.75 0.6q-1.35 2.55-5.1 12.3q-3.6 9.75-4.65 13.5q16.65 0 16.8 0.3zm63.15 56.25q-1.5 0-1.8-0.3q-4.95-4.5-18.45-45.15q-13.5-40.65-13.5-55.8q0-0.3 2.1-1.2q6.3-2.85 11.4-2.85q5.25 0 5.25 0.45q0.6 7.35 8.85 38.85q8.4 31.5 14.4 43.65q1.35 2.7 2.7 1.35q0.45-0.45 0.6-1.05q4.05-7.65 11.55-31.05q7.65-23.55 7.65-38.7q0-1.8-3.45-3.9q-3.3-2.1-6-2.4q-0.15-0.3-0.15-1.65q0-1.35 0.75-4.2q0.75-3 1.35-3.45q13.8-3.75 27.6-3.75q2.25 0.3 2.25 0.6q0 12.9-7.05 38.7q-6.9 25.65-14.25 45.9q-7.35 20.1-9.6 22.35q-6.6 3.6-22.2 3.6zm163.8-58.05q17.7-1.65 25.95-8.25q8.4-6.75 8.4-13.2q0-6.6-6.45-9.6q-6.45-3.15-16.35-3.15q-5.25 0-10.65 0.9q-0.9 6.45-0.9 33.3zm1.65 51.75q-1.65 1.65-6.6 2.7q-4.95 0.9-8.25 0.9q-3.3 0-5.7-0.9l0.9-86.55q-1.95-2.4-3.9-7.95q-1.8-5.55-1.8-6.75q0-1.35 0.3-1.65q0.3-0.45 9.45-0.9q9.3-0.6 18.75-0.6q9.45 0 16.8 1.05q7.35 1.05 15.3 3.75q7.95 2.55 12.6 8.25q4.65 5.7 4.65 14.7q0 8.85-6.3 16.5q-6.3 7.65-17.1 12.9q0 2.4 9.45 21.6q9.45 19.05 15 24.6q0.15 0.15 0.15 0.6q0 0.3-2.4 1.35q-6.6 3.15-14.25 3.15l-3.75-0.3q-3.3-3.3-11.55-21.9q-8.1-18.6-9-22.8q-1.8 1.05-14.25 3.15q0.3 30.15 1.5 35.1zm117.15-86.55q-2.4-0.3-5.55-0.3q-3 0-7.5 0.6q-4.35 0.6-9.15 1.95q-4.65 1.2-7.65 3.9q-3 2.7-3 6.6q0 3.75 4.5 6.75q4.65 2.85 11.1 5.4q6.45 2.4 12.9 5.55q6.6 3.15 11.1 9.3q4.65 6 4.65 14.55q0 15.15-14.55 25.8q-14.4 10.5-36.45 10.5q-11.1 0-16.5-1.2q-1.35-1.35-1.35-16.05q0-14.85 0.6-17.85q0.45-1.35 5.25-3.3q4.8-1.95 9.3-1.95q0 17.7 3.75 21.45q1.5 1.5 5.7 1.5q9.6 0 16.65-5.4q7.2-5.4 7.2-12.75q0-4.95-4.65-8.7q-4.65-3.75-11.4-6.45q-6.6-2.85-13.2-5.85q-6.6-3.15-11.25-8.55q-4.65-5.4-4.65-12.75q0-10.95 13.05-19.95q13.2-9.15 38.1-9.15q5.85 0 6.6 0.75q0.15 0.45 0.15 2.25q0 1.65-1.05 6.6q-1.05 4.95-2.7 6.75zm29.85 27l0.15-16.2q0-6.45-0.3-7.05q-1.65-1.65-4.35-7.95q-2.55-6.3-2.55-8.1q1.65-1.65 52.65-1.65q12.6 0 12.6 0.6q0 3.15-1.5 6.9q-1.35 3.75-3 6q-1.5 2.25-2.25 2.1q-0.6-0.3-6.15-0.3q-5.4 0-15.15 0.75q-9.75 0.6-10.65 1.5q-0.9 0.9-0.9 16.5l0.15 6.3q6-0.15 17.7-0.15q11.7 0 11.7 0.45q0 5.4-3.6 12.3q-1.35 2.4-1.65 2.25q-3.9 0-13.35 0.75q-9.45 0.6-10.95 1.5q-0.15 0.15-0.15 12.6q0 12.45 0.75 13.2q2.4 2.4 25.8 2.4q9.45 0 12.75-0.45q3.3-0.6 3.3-0.45q0 3.6-2.4 8.55q-2.4 4.95-5.1 7.5q-1.5 1.5-27 1.5q-25.35 0-26.25-1.2q-0.9-0.75-0.9-14.4q0-13.8 0.3-29.1q-2.7-2.4-5.25-7.5q-2.4-5.1-2.4-8.7q0-0.15 7.95-0.45z" />
</svg>